<svg class="shop_cart_check" xmlns="http://www.w3.org/2000/svg" width="25" height="25" viewBox="0 0 24 24"><g fill="none" stroke="#002451" stroke-linecap="round" stroke-linejoin="round" stroke-width="1.5" color="#002451"><path d="M8 16h7.263c4.488 0 5.17-2.82 5.998-6.93c.239-1.187.358-1.78.071-2.175s-.837-.395-1.938-.395H19m-13 0h2"/><path d="M11 8.5c.492.506 1.8 2.5 2.5 2.5M16 8.5c-.492.506-1.8 2.5-2.5 2.5m0 0V3M8 16L5.379 3.515A2 2 0 0 0 3.439 2H2.5m6.38 14h-.411C7.105 16 6 17.151 6 18.571a.42.42 0 0 0 .411.429H17.5"/><circle cx="10.5" cy="20.5" r="1.5"/><circle cx="17.5" cy="20.5" r="1.5"/></g></svg>